# xmcd
#
# Track frame offsets:
#	150
#	19202
#	34565
#	47750
#	59122
#	76417
#	89645
#	102170
#	115340
#	124692
#	140347
#	158570
#	170555
#	183270
#	198200
#
# Disc length: 2812 seconds
#
# Revision: 0
# Processed by: cddbd v1.5.1PL2 Copyright (c) Steve Scherf et al.
# Submitted via: dBpowerAMP V4.0
#
DISCID=c70afa0f
DTITLE=Dan Paisley and The Southern Grass - Forty Years of Trouble
DYEAR=2001
DGENRE=Bluegrass
TTITLE0=Live and Let Live
TTITLE1=Shackles and Chains
TTITLE2=When My Blue Moon Turns to Gold Again
TTITLE3=Bill Cheatham
TTITLE4=Prison Walls of Love
TTITLE5=Little Cabin Home on the Hill
TTITLE6=Kentucky Waltz
TTITLE7=Footprints in the Snow
TTITLE8=Hop High Ladies
TTITLE9=Forty Years of Trouble
TTITLE10=Somewhere Between
TTITLE11=Sweeping Through the Gates
TTITLE12=Florida Blues
TTITLE13=At the End of a Long Lonely Day
TTITLE14=Sundown and Sorrow
EXTD=
EXTT0=
EXTT1=
EXTT2=
EXTT3=
EXTT4=
EXTT5=
EXTT6=
EXTT7=
EXTT8=
EXTT9=
EXTT10=
EXTT11=
EXTT12=
EXTT13=
EXTT14=
PLAYORDER=
